<?xml version="1.0" encoding="UTF-8" standalone="no"?>
<svg xmlns:dc="http://purl.org/dc/elements/1.1/" xmlns:cc="http://creativecommons.org/ns#" xmlns:rdf="http://www.w3.org/1999/02/22-rdf-syntax-ns#" xmlns:svg="http://www.w3.org/2000/svg" xmlns="http://www.w3.org/2000/svg" xmlns:sodipodi="http://sodipodi.sourceforge.net/DTD/sodipodi-0.dtd" xmlns:inkscape="http://www.inkscape.org/namespaces/inkscape" width="50" height="50" version="1.1" viewBox="0 0 50.000001 50.000001" id="svg6" sodipodi:docname="magnifying-glass-1976105.svg" inkscape:version="0.92.4 (5da689c313, 2019-01-14)">
  <metadata id="metadata12">
    <rdf:RDF>
      <cc:Work rdf:about="">
        <dc:format>image/svg+xml</dc:format>
        <dc:type rdf:resource="http://purl.org/dc/dcmitype/StillImage"/>
      </cc:Work>
    </rdf:RDF>
  </metadata>
  <defs id="defs10"/>
  <sodipodi:namedview pagecolor="#ffffff" bordercolor="#666666" borderopacity="1" objecttolerance="10" gridtolerance="10" guidetolerance="10" inkscape:pageopacity="0" inkscape:pageshadow="2" inkscape:window-width="1920" inkscape:window-height="1001" id="namedview8" showgrid="false" inkscape:zoom="4.72" inkscape:cx="-15.677966" inkscape:cy="25" inkscape:window-x="-9" inkscape:window-y="-9" inkscape:window-maximized="1" inkscape:current-layer="svg6"/>
  <rect width="50" height="50" id="rect2" x="-50" y="0" transform="scale(-1,1)" style="fill-opacity:0"/>
  <path d="m 18.61529,4.2559 c -7.9132,0 -14.3670004,6.454 -14.3670004,14.367 0,7.9132 6.4540004,14.367 14.3670004,14.367 3.2414,0 6.2283,-1.0954 8.6367,-2.918 a 2.0002,2.0002 0 0 0 0.15039,0.16602 l 14.898,14.898 a 2.0002,2.0002 0 1 0 2.8281,-2.8281 l -14.898,-14.898 a 2.0002,2.0002 0 0 0 -0.16602,-0.15039 c 1.8225,-2.4084 2.918,-5.3953 2.918,-8.6367 0,-7.9132 -6.454,-14.367 -14.367,-14.367 z m 0,3.5898 c 5.9732,0 10.777,4.8042 10.777,10.777 0,5.9732 -4.8042,10.777 -10.777,10.777 -5.9728,0 -10.7770004,-4.8042 -10.7770004,-10.777 0,-5.9732 4.8042004,-10.777 10.7770004,-10.777 z" style="color:#000000;text-indent:0;text-decoration:none;text-decoration-line:none;text-decoration-style:solid;text-decoration-color:#000000;text-transform:none;white-space:normal;isolation:auto;mix-blend-mode:normal;solid-color:#000000;fill:#395fe6;fill-opacity:1;color-rendering:auto;image-rendering:auto;shape-rendering:auto" id="path4" inkscape:connector-curvature="0"/>
</svg>